# xmcd
#
# Track frame offsets:
#	150
#	25193
#	54706
#	70833
#	86789
#	101987
#	129761
#	145648
#	169680
#	191968
#	216116
#	233978
#	247654
#	275463
#	287470
#	299720
#	323278
#	342993
#
# Disc length: 4797 seconds
#
# Revision: 4
# Processed by: cddbd v1.5.2PL0 Copyright (c) Steve Scherf et al.
# Submitted via: EZCDAudioConverter 6.0.0.1
#
DISCID=0d12bb12
DTITLE=Various Artist - Akella Presents - Rockin' Blues - vol.17  CD1 New!
DYEAR=2013
DGENRE=Blues
TTITLE0=HULA MONSTERS - She Don't Mind
TTITLE1=CHRIS HICKS - Blues Got Me Down
TTITLE2=The PIRATES - Don't Munchen It
TTITLE3=VIPPERS - Mailbox Blues
TTITLE4=Dr. FEELGOOOD - Going Out West
TTITLE5=MIKE DUGAN and The BLUES MISSION - Blue Eternity
TTITLE6=BLUEBIRDS - Leavin' Mississippi
TTITLE7=C.C.CARR and The CATCH - Woman's Lookin' for a Man
TTITLE8=RICH HARPER - She's on Her Way Up
TTITLE9=JIM SUHLER and MONKEY BEAT - Lover's Curse
TTITLE10=FRED JAMES - Everybody's Gettin' Them Some
TTITLE11=SMOKEHOUSE - Peepin' Through the Knothole
TTITLE12=CHRIS COBB Band - Bad Brain
TTITLE13=WAYNE ''BEAR'' SAULS - Special Kind of Mambo
TTITLE14=THE DUSTERS - Poison Love
TTITLE15=LITTLE JONNY and The GIANTS - Stranger Blues
TTITLE16=OMAR and The HOWLERS - Black Bottom
TTITLE17=BO WILSON BAND - Hard Time in the Plent
EXTD=
EXTT0=
EXTT1=
EXTT2=
EXTT3=
EXTT4=
EXTT5=
EXTT6=
EXTT7=
EXTT8=
EXTT9=
EXTT10=
EXTT11=
EXTT12=
EXTT13=
EXTT14=
EXTT15=
EXTT16=
EXTT17=
PLAYORDER=
